# xmcd
#
# Track frame offsets:
#	150
#	14470
#	31153
#	48303
#	61513
#	75860
#	90643
#	108153
#	119445
#	138498
#	155145
#	169598
#	180688
#	196365
#	218175
#	232693
#	246430
#	265288
#	281259
#
# Disc length: 3911
#
# Revision: 5
# Processed by: cddbd v1.5.1PL0 Copyright (c) Steve Scherf et al.
# Submitted via: CDex 1.30Release
# Normalized: r3:TDELIM( - ),TSWAP
#
DISCID=f50f4513
DTITLE=Various Artist - The Best Country Love Songs In The World...Ever!
DYEAR=1900
DGENRE=Country
TTITLE0=Glen Campbell - Rhinestone Cowboy
TTITLE1=K. D. Lang - Constant Craving
TTITLE2=Roy Orbison - I Drove All Night
TTITLE3=Dr Hook - When You're In Love With A Beautiful Woman
TTITLE4=John Denver - Annie's Song
TTITLE5=Olivia Newton-John - Take Me Home, Country Roads
TTITLE6=Linda Ronstadt - Blue Be You
TTITLE7=Crystal Gayle - Don't Make It My Brown Eyes Blue
TTITLE8=Bobbie Gentry - Ode To Billie Joe
TTITLE9=Don McLean - Crying
TTITLE10=Gordon Lightfoot - The First Time I ever Saw Your Face
TTITLE11=America - I Need You
TTITLE12=Eddie Rabbitt - Someone Could Loose a Heart
TTITLE13=Steve Wariner - Holes In The Floor
TTITLE14=Don Williams - Another Time Another Place
TTITLE15=Willie Nelson - Funny How Time Slips Away
TTITLE16=Juice Newton - Angel Of the Morning
TTITLE17=Billie Jo Spears - Blanket On The Ground
TTITLE18=Roy Rogers - He'll Have To Go
EXTD=ID3G:   2
EXTT0=
EXTT1=
EXTT2=
EXTT3=
EXTT4=
EXTT5=
EXTT6=
EXTT7=
EXTT8=
EXTT9=
EXTT10=
EXTT11=
EXTT12=
EXTT13=
EXTT14=
EXTT15=
EXTT16=
EXTT17=
EXTT18=
PLAYORDER=
